<svg width="28" height="28" viewBox="0 0 28 28" fill="none" xmlns="http://www.w3.org/2000/svg">
<path d="M14 26.25C20.755 26.25 26.25 20.755 26.25 14C26.25 7.245 20.755 1.75 14 1.75C7.245 1.75 1.75 7.245 1.75 14C1.75 20.755 7.245 26.25 14 26.25ZM14 3.5C19.789 3.5 24.5 8.211 24.5 14C24.5 19.789 19.789 24.5 14 24.5C8.211 24.5 3.5 19.789 3.5 14C3.5 8.211 8.211 3.5 14 3.5Z" fill="#057382"/>
<path d="M13.4068 19.894C13.7148 20.202 14.2136 20.202 14.5198 19.894L14.6441 19.7698C14.9521 19.4618 14.9521 18.963 14.6441 18.6567L10.8623 14.875H19.3376C19.7733 14.875 20.1251 14.5232 20.1251 14.0875V13.9125C20.1251 13.4767 19.7733 13.125 19.3376 13.125H10.8623L14.6441 9.34325C14.9521 9.03525 14.9521 8.5365 14.6441 8.23025L14.5198 8.106C14.2118 7.798 13.7131 7.798 13.4068 8.106L8.1306 13.3822C7.78935 13.7235 7.78935 14.2782 8.1306 14.6195L13.4068 19.8958V19.894Z" fill="#057382"/>
</svg>
