<svg width="28" height="28" viewBox="0 0 28 28" fill="none" xmlns="http://www.w3.org/2000/svg">
<path d="M25.8887 9.95741L15.3135 3.85166C14.5032 3.38441 13.4987 3.38441 12.6885 3.85166L2.1132 9.95741C1.73695 10.1744 1.60745 10.6557 1.82445 11.0337L1.91195 11.1859C2.12895 11.5622 2.6102 11.6917 2.9882 11.4747L3.50095 11.1789V22.7517C3.50095 23.7159 4.2867 24.5017 5.25095 24.5017H10.501C11.4652 24.5017 12.251 23.7159 12.251 22.7517V18.3767C12.251 17.7922 12.2772 17.1639 12.4662 16.9382C12.5852 16.7964 12.9492 16.6267 14.001 16.6267C15.0527 16.6267 15.415 16.7964 15.5357 16.9382C15.7265 17.1639 15.751 17.7922 15.751 18.3767V22.7517C15.751 23.7159 16.5367 24.5017 17.501 24.5017H22.751C23.7152 24.5017 24.501 23.7159 24.501 22.7517V11.1772L25.0137 11.4729C25.39 11.6899 25.8712 11.5622 26.09 11.1842L26.1775 11.0319C26.3945 10.6557 26.2667 10.1744 25.8887 9.95566V9.95741ZM22.751 22.7499H17.501V18.3749C17.501 16.1577 16.9287 14.8749 14.001 14.8749C11.0732 14.8749 10.501 16.1577 10.501 18.3749V22.7499H5.25095V10.1657L13.5635 5.36716C13.833 5.21141 14.169 5.21141 14.4385 5.36716L22.751 10.1657V22.7499Z" fill="#057382"/>
</svg>
