<svg width="20" height="20" viewBox="0 0 20 20" fill="none" xmlns="http://www.w3.org/2000/svg">
<path d="M10 1.25C5.175 1.25 1.25 5.175 1.25 10C1.25 14.825 5.175 18.75 10 18.75C14.825 18.75 18.75 14.825 18.75 10C18.75 5.175 14.825 1.25 10 1.25ZM10 17.5C5.865 17.5 2.5 14.135 2.5 10C2.5 5.865 5.865 2.5 10 2.5C14.135 2.5 17.5 5.865 17.5 10C17.5 14.135 14.135 17.5 10 17.5Z" fill="#057382"/>
<path d="M10.4237 5.79C10.2037 5.57 9.8475 5.57 9.62875 5.79L9.54 5.87875C9.32 6.09875 9.32 6.455 9.54 6.67375L12.2413 9.375H6.1875C5.87625 9.375 5.625 9.62625 5.625 9.9375V10.0625C5.625 10.3737 5.87625 10.625 6.1875 10.625H12.2413L9.54 13.3263C9.32 13.5463 9.32 13.9025 9.54 14.1213L9.62875 14.21C9.84875 14.43 10.205 14.43 10.4237 14.21L14.1925 10.4412C14.4362 10.1975 14.4362 9.80125 14.1925 9.5575L10.4237 5.78875V5.79Z" fill="#057382"/>
</svg>
